<mxfile host="app.diagrams.net" modified="2024-02-27T12:47:22.854Z" agent="Mozilla/5.0 (X11; Linux x86_64; rv:123.0) Gecko/20100101 Firefox/123.0" etag="GQrds1QxW9YXWUZKo2KQ" version="23.1.7" type="device">
  <diagram name="Page-1" id="90a13364-a465-7bf4-72fc-28e22215d7a0">
    <mxGraphModel dx="2286" dy="1172" grid="1" gridSize="10" guides="1" tooltips="1" connect="1" arrows="1" fold="1" page="1" pageScale="1.5" pageWidth="1169" pageHeight="826" background="none" math="0" shadow="0">
      <root>
        <mxCell id="0" style=";html=1;" />
        <mxCell id="1" style=";html=1;" parent="0" />
        <mxCell id="x2qCcvq_knknRyt_ssZJ-17" value="" style="whiteSpace=wrap;html=1;rounded=1;" vertex="1" parent="1">
          <mxGeometry x="400" y="610" width="1040" height="280" as="geometry" />
        </mxCell>
        <mxCell id="x2qCcvq_knknRyt_ssZJ-16" value="" style="whiteSpace=wrap;html=1;rounded=1;" vertex="1" parent="1">
          <mxGeometry x="400" y="330" width="1040" height="240" as="geometry" />
        </mxCell>
        <mxCell id="x2qCcvq_knknRyt_ssZJ-3" value="Teardown &amp;amp; Discovery" style="whiteSpace=wrap;html=1;shadow=1;fontSize=18;fillColor=#f5f5f5;strokeColor=#666666;" vertex="1" parent="1">
          <mxGeometry x="440" y="410" width="160" height="120" as="geometry" />
        </mxCell>
        <mxCell id="x2qCcvq_knknRyt_ssZJ-4" style="edgeStyle=elbowEdgeStyle;rounded=0;html=1;startArrow=none;startFill=0;jettySize=auto;orthogonalLoop=1;fontSize=18;elbow=vertical;exitX=0.5;exitY=0;exitDx=0;exitDy=0;entryX=0.5;entryY=0;entryDx=0;entryDy=0;" edge="1" parent="1" source="x2qCcvq_knknRyt_ssZJ-3" target="x2qCcvq_knknRyt_ssZJ-6">
          <mxGeometry relative="1" as="geometry">
            <mxPoint x="530" y="369" as="sourcePoint" />
            <mxPoint x="730" y="369" as="targetPoint" />
            <Array as="points">
              <mxPoint x="570" y="369" />
            </Array>
          </mxGeometry>
        </mxCell>
        <mxCell id="x2qCcvq_knknRyt_ssZJ-6" value="Component Identification" style="whiteSpace=wrap;html=1;shadow=1;fontSize=18;fillColor=#f5f5f5;strokeColor=#666666;" vertex="1" parent="1">
          <mxGeometry x="640" y="410" width="160" height="120" as="geometry" />
        </mxCell>
        <mxCell id="x2qCcvq_knknRyt_ssZJ-7" value="Firmware Recovery and Analysis" style="whiteSpace=wrap;html=1;shadow=1;fontSize=18;fillColor=#f5f5f5;strokeColor=#666666;" vertex="1" parent="1">
          <mxGeometry x="840" y="409" width="160" height="121" as="geometry" />
        </mxCell>
        <mxCell id="x2qCcvq_knknRyt_ssZJ-8" style="edgeStyle=elbowEdgeStyle;rounded=0;html=1;startArrow=none;startFill=0;jettySize=auto;orthogonalLoop=1;fontSize=18;elbow=vertical;exitX=0.5;exitY=0;exitDx=0;exitDy=0;entryX=0.5;entryY=0;entryDx=0;entryDy=0;" edge="1" parent="1" source="x2qCcvq_knknRyt_ssZJ-7" target="x2qCcvq_knknRyt_ssZJ-9">
          <mxGeometry relative="1" as="geometry">
            <mxPoint x="930" y="369" as="sourcePoint" />
            <mxPoint x="1130" y="369" as="targetPoint" />
            <Array as="points">
              <mxPoint x="970" y="369" />
            </Array>
          </mxGeometry>
        </mxCell>
        <mxCell id="x2qCcvq_knknRyt_ssZJ-9" value="Network Traffic Analysis" style="whiteSpace=wrap;html=1;shadow=1;fontSize=18;fillColor=#f5f5f5;strokeColor=#666666;" vertex="1" parent="1">
          <mxGeometry x="1040" y="409" width="160" height="121" as="geometry" />
        </mxCell>
        <mxCell id="x2qCcvq_knknRyt_ssZJ-10" style="edgeStyle=elbowEdgeStyle;rounded=0;html=1;startArrow=none;startFill=0;jettySize=auto;orthogonalLoop=1;fontSize=18;elbow=vertical;exitX=0.5;exitY=0;exitDx=0;exitDy=0;entryX=0.5;entryY=0;entryDx=0;entryDy=0;" edge="1" parent="1" source="x2qCcvq_knknRyt_ssZJ-6" target="x2qCcvq_knknRyt_ssZJ-7">
          <mxGeometry relative="1" as="geometry">
            <mxPoint x="730" y="409" as="sourcePoint" />
            <mxPoint x="930" y="409" as="targetPoint" />
            <Array as="points">
              <mxPoint x="770" y="369" />
            </Array>
          </mxGeometry>
        </mxCell>
        <mxCell id="x2qCcvq_knknRyt_ssZJ-11" value="USB Comm. Analysis" style="whiteSpace=wrap;html=1;shadow=1;fontSize=18;fillColor=#f5f5f5;strokeColor=#666666;" vertex="1" parent="1">
          <mxGeometry x="1240" y="409" width="160" height="121" as="geometry" />
        </mxCell>
        <mxCell id="x2qCcvq_knknRyt_ssZJ-13" value="Identify  RTOS Vulnerabilities" style="whiteSpace=wrap;html=1;shadow=1;fontSize=18;fillColor=#f5f5f5;strokeColor=#666666;" vertex="1" parent="1">
          <mxGeometry x="640" y="720" width="160" height="120" as="geometry" />
        </mxCell>
        <mxCell id="x2qCcvq_knknRyt_ssZJ-15" style="edgeStyle=elbowEdgeStyle;rounded=0;html=1;startArrow=none;startFill=0;jettySize=auto;orthogonalLoop=1;fontSize=18;elbow=vertical;exitX=0.5;exitY=0;exitDx=0;exitDy=0;entryX=0.5;entryY=0;entryDx=0;entryDy=0;" edge="1" parent="1" source="x2qCcvq_knknRyt_ssZJ-9" target="x2qCcvq_knknRyt_ssZJ-11">
          <mxGeometry relative="1" as="geometry">
            <mxPoint x="1130" y="409" as="sourcePoint" />
            <mxPoint x="1330" y="409" as="targetPoint" />
            <Array as="points">
              <mxPoint x="1170" y="369" />
            </Array>
          </mxGeometry>
        </mxCell>
        <mxCell id="x2qCcvq_knknRyt_ssZJ-19" style="edgeStyle=elbowEdgeStyle;rounded=0;html=1;startArrow=none;startFill=0;jettySize=auto;orthogonalLoop=1;fontSize=18;elbow=vertical;exitX=0.5;exitY=0;exitDx=0;exitDy=0;entryX=0.5;entryY=0;entryDx=0;entryDy=0;" edge="1" parent="1" target="x2qCcvq_knknRyt_ssZJ-20">
          <mxGeometry relative="1" as="geometry">
            <mxPoint x="1480" y="749" as="sourcePoint" />
            <mxPoint x="1680" y="709" as="targetPoint" />
            <Array as="points">
              <mxPoint x="1520" y="709" />
            </Array>
          </mxGeometry>
        </mxCell>
        <mxCell id="x2qCcvq_knknRyt_ssZJ-31" value="" style="shape=singleArrow;whiteSpace=wrap;html=1;arrowWidth=0.4;arrowSize=0.4;rotation=90;" vertex="1" parent="1">
          <mxGeometry x="860.5" y="550" width="119" height="96" as="geometry" />
        </mxCell>
        <mxCell id="x2qCcvq_knknRyt_ssZJ-32" value="RTOS Modification &amp;amp; Development" style="whiteSpace=wrap;html=1;shadow=1;fontSize=18;fillColor=#f5f5f5;strokeColor=#666666;" vertex="1" parent="1">
          <mxGeometry x="840" y="720" width="160" height="120" as="geometry" />
        </mxCell>
        <mxCell id="x2qCcvq_knknRyt_ssZJ-33" value="RTOS Reimaging &amp;amp; Testing" style="whiteSpace=wrap;html=1;shadow=1;fontSize=18;fillColor=#f5f5f5;strokeColor=#666666;" vertex="1" parent="1">
          <mxGeometry x="1040" y="720" width="160" height="120" as="geometry" />
        </mxCell>
        <mxCell id="x2qCcvq_knknRyt_ssZJ-35" style="edgeStyle=elbowEdgeStyle;rounded=0;html=1;startArrow=none;startFill=0;jettySize=auto;orthogonalLoop=1;fontSize=18;elbow=vertical;exitX=0.5;exitY=0;exitDx=0;exitDy=0;entryX=0.5;entryY=0;entryDx=0;entryDy=0;" edge="1" parent="1">
          <mxGeometry relative="1" as="geometry">
            <mxPoint x="720" y="720" as="sourcePoint" />
            <mxPoint x="920" y="720" as="targetPoint" />
            <Array as="points">
              <mxPoint x="770" y="680" />
            </Array>
          </mxGeometry>
        </mxCell>
        <mxCell id="x2qCcvq_knknRyt_ssZJ-36" style="edgeStyle=elbowEdgeStyle;rounded=0;html=1;startArrow=none;startFill=0;jettySize=auto;orthogonalLoop=1;fontSize=18;elbow=vertical;exitX=0.5;exitY=0;exitDx=0;exitDy=0;entryX=0.5;entryY=0;entryDx=0;entryDy=0;" edge="1" parent="1">
          <mxGeometry relative="1" as="geometry">
            <mxPoint x="920" y="720" as="sourcePoint" />
            <mxPoint x="1120" y="720" as="targetPoint" />
            <Array as="points">
              <mxPoint x="970" y="680" />
            </Array>
          </mxGeometry>
        </mxCell>
      </root>
    </mxGraphModel>
  </diagram>
</mxfile>
